#!OML:ASF H:\Terrain\Patient Classification 1\Takeo\Monday\TakeoMonday.ASF
:FULLY-SPECIFIED
:DEGREES
126
root 8.89126 17.5975 12.6864 -0.954725 -8.15428 -0.764459
lowerback 8.81347 2.21404 5.51387
upperback 1.38325 3.45372 -0.115566
thorax -3.16418 1.656 -3.59979
lowerneck -11.9998 0.567796 -1.74096
upperneck -7.3146 0.928133 -1.07787
head -0.309849 0.497756 -0.0175401
rclavicle -9.69075e-016 2.18663e-015
rhumerus -12.3762 25.4218 -81.7853
rradius 108.956
rwrist -7.92717
rhand -42.0515 56.5755
rfingers 7.12502
rthumb -14.9448 27.1346
lclavicle -9.69075e-016 2.18663e-015
lhumerus -76.5873 -13.5468 93.8865
lradius 89.9539
lwrist 29.3913
lhand -34.6671 0.744897
lfingers 7.12502
lthumb -7.8235 30.5801
rfemur 8.91191 13.9561 28.7836
rtibia 32.3803
rfoot -6.45815 -4.77459
rtoes -22.4567
lfemur -38.7269 -0.950288 -21.4935
ltibia 88.3662
lfoot -14.4561 11.9695
ltoes -14.1479
127
root 8.89662 17.7352 13.1174 -0.957995 -8.15412 -0.625148
lowerback 8.68932 2.37378 5.43219
upperback 1.17043 3.65222 -0.284844
thorax -3.29098 1.74689 -3.75048
lowerneck -12.2356 0.444658 -1.95402
upperneck -6.79063 0.815299 -0.59589
head -0.109973 0.444906 0.164262
rclavicle -1.96797e-014 -9.93923e-016
rhumerus -12.8422 25.2991 -82.0202
rradius 109.893
rwrist -7.58386
rhand -40.5223 54.0113
rfingers 7.12502
rthumb -13.4712 24.467
lclavicle -1.96797e-014 -9.93923e-016
lhumerus -77.1703 -13.1762 93.4386
lradius 89.8885
lwrist 29.9094
lhand -34.9064 -0.63263
lfingers 7.12502
lthumb -8.05446 29.1939
rfemur 10.3303 13.4412 28.3776
rtibia 31.0904
rfoot -2.06401 -4.76037
rtoes -22.1565
lfemur -38.4866 -1.42487 -21.5891
ltibia 84.3328
lfoot -15.1792 12.6009
ltoes -12.2755
128
root 8.90689 17.8563 13.5499 -0.914474 -8.15097 -0.809191
lowerback 8.44587 2.49393 5.63636
upperback 1.00996 3.82247 -0.26378
thorax -3.29341 1.82591 -3.85094
lowerneck -12.5624 0.461572 -1.82352
upperneck -6.01588 0.832437 -0.989031
head 0.189152 0.438551 0.0270456
rclavicle -3.73218e-014 1.15295e-014
rhumerus -13.4276 25.4725 -82.1903
rradius 110.76
rwrist -7.2492
rhand -39.7072 52.993
rfingers 7.12502
rthumb -12.6855 23.3982
lclavicle -3.73218e-014 1.15295e-014
lhumerus -77.5688 -12.6254 93.143
lradius 89.7891
lwrist 30.0339
lhand -34.6805 -0.909478
lfingers 7.12502
lthumb -7.83644 28.9253
rfemur 11.8845 12.612 28.1771
rtibia 29.6095
rfoot 2.59783 -4.77741
rtoes -21.858
lfemur -38.0955 -1.79474 -21.3379
ltibia 80.1935
lfoot -15.9786 13.5491
ltoes -11.4505
129
root 8.91724 17.9742 13.995 -0.952973 -8.07931 -1.32609
lowerback 8.1215 2.49819 6.18661
upperback 0.932776 3.86322 -0.156658
thorax -3.15995 1.84296 -4.03402
lowerneck -12.7354 0.389974 -1.9026
upperneck -5.53041 0.760341 -0.830013
head 0.371853 0.400815 0.0889099
rclavicle -1.11568e-014 -3.37934e-015
rhumerus -14.1305 26.0274 -82.5534
rradius 111.628
rwrist -7.21345
rhand -39.3341 52.8504
rfingers 7.12502
rthumb -12.3258 23.2337
lclavicle -1.11568e-014 -3.37934e-015
lhumerus -77.9451 -11.9441 92.8186
lradius 89.7766
lwrist 30.3383
lhand -34.3379 -0.0204865
lfingers 7.12502
lthumb -7.50571 29.8263
rfemur 13.453 11.6155 28.287
rtibia 28.2336
rfoot 7.18673 -4.955
rtoes -20.9861
lfemur -37.4021 -2.08411 -20.7077
ltibia 75.8968
lfoot -16.7811 14.5952
ltoes -11.7119
130
root 8.92056 18.1033 14.4397 -0.907763 -7.96051 -1.58535
lowerback 7.7987 2.49173 6.24897
upperback 0.761975 3.849 -0.0250573
thorax -3.16472 1.8318 -3.91767
lowerneck -13.0795 0.266809 -1.71638
upperneck -4.86635 0.587776 -1.05185
head 0.644308 0.300172 -0.0147524
rclavicle -7.46685e-015 1.49089e-014
rhumerus -15.0854 26.7192 -82.9508
rradius 112.384
rwrist -6.63115
rhand -39.8322 53.1745
rfingers 7.12502
rthumb -12.8061 23.5873
lclavicle -7.46685e-015 1.49089e-014
lhumerus -78.477 -10.9533 92.5189
lradius 89.9087
lwrist 30.3678
lhand -33.8757 0.703728
lfingers 7.12502
lthumb -7.05962 30.566
rfemur 14.6732 10.6072 28.0958
rtibia 26.9955
rfoot 11.5941 -5.04136
rtoes -20.6566
lfemur -36.6796 -2.27845 -20.3534
ltibia 71.3477
lfoot -17.375 15.567
ltoes -10.515
131
root 8.92553 18.2284 14.8853 -0.849909 -7.95764 -1.19519
lowerback 7.38571 2.57146 5.59045
upperback 0.581698 3.88019 0.00033902
thorax -3.16339 1.8528 -3.50899
lowerneck -12.6986 0.496884 -1.69131
upperneck -4.69727 0.882408 -1.32606
head 0.635527 0.441629 -0.092216
rclavicle -7.34261e-015 -6.36111e-015
rhumerus -16.2423 27.3783 -83.2964
rradius 112.98
rwrist -5.99842
rhand -40.6496 54.6616
rfingers 7.12502
rthumb -13.5939 25.1255
lclavicle -7.34261e-015 -6.36111e-015
lhumerus -78.8577 -9.85024 92.3964
lradius 89.96
lwrist 30.0166
lhand -33.5566 0.627334
lfingers 7.12502
lthumb -6.75152 30.4997
rfemur 15.688 9.84417 27.205
rtibia 25.9779
rfoot 15.3962 -4.51655
rtoes -20.9333
lfemur -35.7137 -2.35903 -20.7858
ltibia 66.5441
lfoot -17.9967 16.346
ltoes -9.68056
132
root 8.93071 18.3328 15.3434 -0.776811 -7.99151 -0.963071
lowerback 6.77764 2.64866 5.31648
upperback 0.415737 3.92532 -0.137125
thorax -2.99978 1.88097 -3.47219
lowerneck -12.7139 0.353839 -1.84067
upperneck -4.12282 0.72145 -0.84884
head 0.82195 0.36608 0.0760502
rclavicle -2.8948e-015 -1.2921e-014
rhumerus -17.5391 27.7855 -84.0409
rradius 113.38
rwrist -6.2166
rhand -40.8329 55.4024
rfingers 7.12502
rthumb -13.7706 25.8782
lclavicle -2.8948e-015 -1.2921e-014
lhumerus -79.1476 -9.13304 92.074
lradius 90.0891
lwrist 29.9331
lhand -33.3911 0.597393
lfingers 7.12502
lthumb -6.59174 30.4748
rfemur 16.5419 9.51577 26.6402
rtibia 25.6402
rfoot 17.6584 -4.18959
rtoes -21.6237
lfemur -34.6056 -2.43319 -21.033
ltibia 61.6877
lfoot -18.7 16.5582
ltoes -10.9053
133
root 8.91961 18.4147 15.7698 -0.36003 -7.85766 -1.45688
lowerback 6.21403 2.63856 5.51838
upperback 0.156254 3.9029 -0.083783
thorax -2.94648 1.86431 -3.50352
lowerneck -12.6006 0.334801 -1.82234
upperneck -3.77872 0.693497 -0.501088
head 0.91381 0.356028 0.181011
rclavicle 1.4561e-014 9.34288e-015
rhumerus -18.6905 28.0522 -84.7873
rradius 113.594
rwrist -6.91357
rhand -40.3431 54.822
rfingers 7.12502
rthumb -13.2986 25.2663
lclavicle 1.4561e-014 9.34288e-015
lhumerus -79.3514 -8.5444 91.6503
lradius 90.4357
lwrist 29.9705
lhand -33.3417 0.830803
lfingers 7.12502
lthumb -6.54404 30.7097
rfemur 16.7572 9.41405 27.1646
rtibia 26.0717
rfoot 18.3251 -4.49714
rtoes -23.1429
lfemur -34.1508 -2.53122 -20.298
ltibia 56.9563
lfoot -19.1056 15.9873
ltoes -12.0723
134
root 8.90383 18.4851 16.1764 0.0759625 -7.83925 -1.95459
lowerback 5.88672 2.6364 5.47616
upperback -0.0954187 3.89183 0.116468
thorax -3.0423 1.85267 -3.26185
lowerneck -12.9115 0.391771 -1.90095
upperneck -3.14099 0.789383 -0.217651
head 1.17353 0.405005 0.291743
rclavicle -1.21197e-014 2.98177e-015
rhumerus -19.9013 28.4937 -85.4576
rradius 113.806
rwrist -7.50159
rhand -40.0042 55.0409
rfingers 7.12502
rthumb -12.9718 25.4641
lclavicle -1.21197e-014 2.98177e-015
lhumerus -79.329 -7.807 91.3536
lradius 90.7387
lwrist 29.8151
lhand -33.0445 1.0533
lfingers 7.12502
lthumb -6.25714 30.9409
rfemur 16.6498 9.38527 27.7353
rtibia 26.9887
rfoot 17.9573 -5.19202
rtoes -22.7512
lfemur -33.816 -2.50925 -19.5304
ltibia 52.402
lfoot -19.3857 15.3084
ltoes -13.5083
135
root 8.89989 18.5273 16.6098 0.0854344 -7.91852 -1.97412
lowerback 5.55475 2.65175 5.11566
upperback -0.141907 3.87153 0.178782
thorax -2.9337 1.85116 -2.97792
lowerneck -13.178 0.471999 -1.81804
upperneck -2.69714 0.891002 -0.120943
head 1.36474 0.453609 0.316771
rclavicle -2.16054e-014 -5.66536e-015
rhumerus -21.1227 28.9672 -86.1986
rradius 113.944
rwrist -7.81553
rhand -39.7297 55.3477
rfingers 7.12502
rthumb -12.7072 25.7543
lclavicle -2.16054e-014 -5.66536e-015
lhumerus -79.1684 -7.04607 91.0462
lradius 91.0474
lwrist 29.7673
lhand -32.9751 0.725044
lfingers 7.12502
lthumb -6.19019 30.6146
rfemur 16.8315 9.18193 27.5854
rtibia 28.3785
rfoot 16.5887 -5.9438
rtoes -20.4318
lfemur -32.7573 -2.43934 -19.5381
ltibia 48.0982
lfoot -19.5362 15.2254
ltoes -19.1702
